<svg xmlns="http://www.w3.org/2000/svg" viewBox="0 0 24 24" fill="currentColor">
  <path d="M11.914 0C5.82 0 6.2 2.656 6.2 2.656l.006 2.753h5.808v.826H3.88s-3.88-.44-3.88 5.485c0 5.926 3.39 5.718 3.39 5.718h2.025v-2.84s-.11-3.389 3.332-3.389h5.753s3.22.052 3.22-3.116V3.39S18.334 0 11.914 0zm-1.77 1.71c.585 0 1.06.474 1.06 1.059 0 .584-.475 1.058-1.06 1.058-.584 0-1.058-.474-1.058-1.058 0-.585.474-1.06 1.058-1.06zm1.942 22.29c6.095 0 5.714-2.656 5.714-2.656l-.006-2.753H11.986v-.826h8.134s3.88.44 3.88-5.485c0-5.926-3.39-5.718-3.39-5.718h-2.025v2.84s.11 3.389-3.332 3.389H9.499s-3.22-.052-3.22 3.116v4.303S5.666 24 12.086 24zm1.77-1.71c-.585 0-1.06-.474-1.06-1.059 0-.584.475-1.058 1.06-1.058.584 0 1.058.474 1.058 1.058 0 .585-.474 1.06-1.058 1.06z"/>
</svg>
